<?xml version="1.0" encoding="UTF-8"?>
<svg version="1.1" xmlns="http://www.w3.org/2000/svg" width="512" height="512">
<path d="M0 0 C1.51427582 0.00081573 1.51427582 0.00081573 3.05914307 0.00164795 C19.56873539 0.04241399 35.48532001 0.94970691 51.6875 4.375 C52.72938477 4.59462402 53.77126953 4.81424805 54.84472656 5.04052734 C101.13799311 15.13814785 143.55163721 37.49728758 177.6875 70.375 C178.6765332 71.32318604 178.6765332 71.32318604 179.68554688 72.29052734 C189.17380305 81.43497479 197.9137044 90.73234009 205.6875 101.375 C206.54556152 102.52605017 207.40363451 103.67709177 208.26171875 104.828125 C214.29927396 113.01775981 219.68207302 121.52038276 224.6875 130.375 C225.0896875 131.08221191 225.491875 131.78942383 225.90625 132.51806641 C240.65861537 158.72080287 250.19385806 187.66130797 254.6875 217.375 C254.86410156 218.49745117 255.04070312 219.61990234 255.22265625 220.77636719 C256.8795586 232.38947743 257.08623513 243.90679945 257.0625 255.625 C257.06168427 257.14302216 257.06168427 257.14302216 257.06085205 258.69171143 C257.02011956 275.22030572 256.11674222 291.15413999 252.6875 307.375 C252.46787598 308.41688477 252.24825195 309.45876953 252.02197266 310.53222656 C241.92435215 356.82549311 219.56521242 399.23913721 186.6875 433.375 C186.05537598 434.03435547 185.42325195 434.69371094 184.77197266 435.37304688 C175.62752521 444.86130305 166.33015991 453.6012044 155.6875 461.375 C154.53644983 462.23306152 153.38540823 463.09113451 152.234375 463.94921875 C144.04319386 469.98736829 135.52945895 475.34595521 126.6875 480.375 C126.05569824 480.73948242 125.42389648 481.10396484 124.77294922 481.47949219 C98.68785999 496.40973018 69.35164886 505.88885054 39.6875 510.375 C38.56504883 510.55160156 37.44259766 510.72820312 36.28613281 510.91015625 C24.67302257 512.5670586 13.15570055 512.77373513 1.4375 512.75 C-0.08052216 512.74918427 -0.08052216 512.74918427 -1.62921143 512.74835205 C-18.15780572 512.70761956 -34.09163999 511.80424222 -50.3125 508.375 C-51.35438477 508.15537598 -52.39626953 507.93575195 -53.46972656 507.70947266 C-99.76299311 497.61185215 -142.17663721 475.25271242 -176.3125 442.375 C-176.97185547 441.74287598 -177.63121094 441.11075195 -178.31054688 440.45947266 C-187.79880305 431.31502521 -196.5387044 422.01765991 -204.3125 411.375 C-205.17056152 410.22394983 -206.02863451 409.07290823 -206.88671875 407.921875 C-212.92486829 399.73069386 -218.28345521 391.21695895 -223.3125 382.375 C-223.67698242 381.74319824 -224.04146484 381.11139648 -224.41699219 380.46044922 C-246.02284998 342.71217428 -255.78948095 299.94560003 -255.625 256.75 C-255.62284485 255.73209381 -255.6206897 254.71418762 -255.61846924 253.66543579 C-255.56879854 239.05636477 -255.31790191 224.72424147 -252.3125 210.375 C-252.11382324 209.40014648 -251.91514648 208.42529297 -251.71044922 207.42089844 C-241.58982806 159.0390226 -219.6733123 115.05071731 -185.3125 79.375 C-184.68037598 78.71564453 -184.04825195 78.05628906 -183.39697266 77.37695312 C-174.25252521 67.88869695 -164.95515991 59.1487956 -154.3125 51.375 C-153.16144983 50.51693848 -152.01040823 49.65886549 -150.859375 48.80078125 C-142.66974019 42.76322604 -134.16711724 37.38042698 -125.3125 32.375 C-124.60528809 31.9728125 -123.89807617 31.570625 -123.16943359 31.15625 C-100.03404164 18.1308259 -74.86287591 9.38198539 -48.875 4.0625 C-48.15610596 3.91514404 -47.43721191 3.76778809 -46.6965332 3.6159668 C-31.16987908 0.66484793 -15.76936592 -0.03207988 0 0 Z " fill="#09A0E7" transform="translate(255.3125,-0.375)"/>
<path d="M0 0 C1.51427582 0.00081573 1.51427582 0.00081573 3.05914307 0.00164795 C19.56873539 0.04241399 35.48532001 0.94970691 51.6875 4.375 C52.72938477 4.59462402 53.77126953 4.81424805 54.84472656 5.04052734 C101.13799311 15.13814785 143.55163721 37.49728758 177.6875 70.375 C178.6765332 71.32318604 178.6765332 71.32318604 179.68554688 72.29052734 C189.17380305 81.43497479 197.9137044 90.73234009 205.6875 101.375 C206.54556152 102.52605017 207.40363451 103.67709177 208.26171875 104.828125 C214.29927396 113.01775981 219.68207302 121.52038276 224.6875 130.375 C225.0896875 131.08221191 225.491875 131.78942383 225.90625 132.51806641 C242.63238942 162.22656483 254.53493751 197.08626601 255.6875 231.375 C249.64268499 226.4174134 244.30046377 220.95110314 238.91723633 215.28979492 C236.93366274 213.21476455 234.94748761 211.14223057 232.96138 209.06962585 C232.18242196 208.25590879 232.18242196 208.25590879 231.38772738 207.425753 C224.07414118 199.79200687 216.68342261 192.23299008 209.29806995 184.6687727 C203.31203024 178.53340514 197.35328006 172.37535443 191.45239258 166.15795898 C186.27712772 160.70533781 181.05283461 155.30516342 175.7694208 149.95720178 C172.988701 147.13907826 170.23523251 144.30393304 167.54020119 141.40355492 C151.08826441 123.74761503 136.32043539 117.28076141 112.65420341 113.10478401 C107.6094386 112.20516103 102.6940318 110.91483802 97.76123047 109.53662109 C96.25155751 109.13383819 94.74146654 108.73261824 93.23092651 108.33309937 C91.75549521 107.93828044 90.28008266 107.54339146 88.8046875 107.1484375 C87.14728784 106.70701625 85.4898252 106.26583145 83.83230591 105.82485962 C79.59078067 104.69574494 75.35012655 103.56339537 71.10968018 102.43023682 C67.6921776 101.51757618 64.27405828 100.60723908 60.85587692 99.69712448 C58.31369904 99.02010549 55.77174238 98.34226039 53.22979736 97.66436768 C49.93963633 96.78721518 46.64851634 95.91379971 43.35662842 95.04315186 C36.17770843 93.14015672 29.01882528 91.2012724 21.89550781 89.09863281 C20.13003098 88.58823959 20.13003098 88.58823959 18.32888794 88.0675354 C16.2152596 87.45276234 14.10702993 86.81887083 12.00680542 86.15975952 C1.5976609 83.16377166 -7.73017895 85.98059466 -17.8125 89.0625 C-26.38586928 91.59882146 -35.00803433 93.8558176 -43.6875 96 C-44.90034668 96.29994873 -46.11319336 96.59989746 -47.36279297 96.90893555 C-49.67740061 97.48131588 -51.99201607 98.05366461 -54.30664062 98.62597656 C-59.60973816 99.94744369 -64.88765714 101.35487035 -70.16113281 102.79003906 C-75.04292267 104.11740725 -79.92791188 105.4329745 -84.8125 106.75 C-86.48928833 107.20221924 -86.48928833 107.20221924 -88.19995117 107.66357422 C-98.31050407 110.38500349 -108.43994832 113.03067864 -118.57421875 115.66210938 C-123.13506978 116.84949213 -127.69262586 118.04935278 -132.25 119.25 C-133.06782959 119.46543457 -133.88565918 119.68086914 -134.72827148 119.90283203 C-136.58973662 120.39334364 -138.45112767 120.88413635 -140.3125 121.375 C-127.25558415 125.23272514 -114.14788999 128.74236219 -100.90917969 131.92602539 C-99.77770508 132.2018042 -98.64623047 132.47758301 -97.48046875 132.76171875 C-96.48297607 133.00108154 -95.4854834 133.24044434 -94.45776367 133.48706055 C-90.67112067 134.55606781 -86.99662416 135.99345344 -83.3125 137.375 C-83.3125 160.475 -83.3125 183.575 -83.3125 207.375 C-104.1025 207.375 -124.8925 207.375 -146.3125 207.375 C-146.3125 215.955 -146.3125 224.535 -146.3125 233.375 C-140.7025 233.375 -135.0925 233.375 -129.3125 233.375 C-129.3125 247.235 -129.3125 261.095 -129.3125 275.375 C-134.9225 275.375 -140.5325 275.375 -146.3125 275.375 C-146.3125 284.285 -146.3125 293.195 -146.3125 302.375 C-133.4425 302.375 -120.5725 302.375 -107.3125 302.375 C-110.52050803 303.97900401 -113.59565061 305.23909113 -116.9375 306.5 C-130.02530094 311.96786324 -138.11365118 321.47162582 -143.5859375 334.3671875 C-147.86033598 346.17923491 -145.83981168 360.23032582 -140.6875 371.375 C-137.16055272 378.15159157 -132.71300947 384.10799369 -126.3125 388.375 C-126.3125 389.365 -126.3125 390.355 -126.3125 391.375 C-125.47597334 391.72417559 -125.47597334 391.72417559 -124.62254715 392.08040524 C-121.71261965 393.71118446 -119.71144274 395.72733553 -117.35174561 398.08851624 C-116.86646873 398.5713787 -116.38119185 399.05424116 -115.88120961 399.55173582 C-114.25813981 401.16917469 -112.64231052 402.79365644 -111.02636719 404.41821289 C-109.86365238 405.5798547 -108.70050473 406.74106341 -107.53695679 407.90187073 C-104.37980594 411.05417428 -101.22894024 414.21269226 -98.07929134 417.37248921 C-94.78606314 420.67449532 -91.48756972 423.97123397 -88.1897583 427.2686615 C-82.65499051 432.80436576 -77.1241099 438.3439298 -71.59570312 443.88598633 C-65.19492328 450.30251089 -58.78891243 456.71377445 -52.37988925 463.12206465 C-46.22222836 469.2791163 -40.0674243 475.43901498 -33.91422272 481.60052299 C-31.29138817 484.22689704 -28.66769796 486.85241195 -26.04335785 489.47728157 C-22.95810457 492.56353562 -19.87540097 495.65231395 -16.79469681 498.74310875 C-15.66032496 499.88041361 -14.52509302 501.0168613 -13.38896561 502.15241241 C-11.84542495 503.69546614 -10.30497119 505.24153442 -8.76531982 506.78846741 C-7.90034252 507.65512055 -7.03536522 508.5217737 -6.14417648 509.41468906 C-4.3125 511.375 -4.3125 511.375 -4.3125 512.375 C-64.27493789 515.23035419 -126.12047808 487.88400477 -170.125 448.25 C-172.20884145 446.31351161 -174.26360615 444.34837747 -176.3125 442.375 C-176.97185547 441.74287598 -177.63121094 441.11075195 -178.31054688 440.45947266 C-187.79880305 431.31502521 -196.5387044 422.01765991 -204.3125 411.375 C-205.17056152 410.22394983 -206.02863451 409.07290823 -206.88671875 407.921875 C-212.92486829 399.73069386 -218.28345521 391.21695895 -223.3125 382.375 C-223.67698242 381.74319824 -224.04146484 381.11139648 -224.41699219 380.46044922 C-246.02284998 342.71217428 -255.78948095 299.94560003 -255.625 256.75 C-255.62284485 255.73209381 -255.6206897 254.71418762 -255.61846924 253.66543579 C-255.56879854 239.05636477 -255.31790191 224.72424147 -252.3125 210.375 C-252.11382324 209.40014648 -251.91514648 208.42529297 -251.71044922 207.42089844 C-241.58982806 159.0390226 -219.6733123 115.05071731 -185.3125 79.375 C-184.68037598 78.71564453 -184.04825195 78.05628906 -183.39697266 77.37695312 C-174.25252521 67.88869695 -164.95515991 59.1487956 -154.3125 51.375 C-153.16144983 50.51693848 -152.01040823 49.65886549 -150.859375 48.80078125 C-142.66974019 42.76322604 -134.16711724 37.38042698 -125.3125 32.375 C-124.60528809 31.9728125 -123.89807617 31.570625 -123.16943359 31.15625 C-100.03404164 18.1308259 -74.86287591 9.38198539 -48.875 4.0625 C-48.15610596 3.91514404 -47.43721191 3.76778809 -46.6965332 3.6159668 C-31.16987908 0.66484793 -15.76936592 -0.03207988 0 0 Z " fill="#3BC2FE" transform="translate(255.3125,-0.375)"/>
<path d="M0 0 C32.77376128 -0.11315294 65.54744704 -0.20261326 98.32135872 -0.25532665 C102.19511513 -0.2615798 106.06887114 -0.26805145 109.94262695 -0.2746582 C110.71378614 -0.27596976 111.48494533 -0.27728131 112.27947298 -0.2786326 C124.74791493 -0.3003588 137.216241 -0.33976485 149.68461432 -0.38576398 C162.48884038 -0.43260639 175.29300596 -0.4603118 188.09731418 -0.47044247 C195.99128731 -0.47728556 203.88493287 -0.49885813 211.77880511 -0.53958233 C217.84314478 -0.56926462 223.90720572 -0.5722546 229.97162628 -0.56553841 C232.45113701 -0.56690943 234.93066061 -0.57679467 237.41009712 -0.59602737 C256.04116025 -0.73340896 269.15029386 0.65314117 283.1171875 14.02734375 C294.0237888 25.40725039 296.4981802 36.88924462 296.27734375 51.99609375 C296.05567959 57.93250261 294.78248483 62.74515249 292 68 C291.55269531 68.86882812 291.10539062 69.73765625 290.64453125 70.6328125 C283.90611544 82.73666932 274.10519105 89.63160298 261 94 C272.88 94.33 284.76 94.66 297 95 C297.0309375 101.4040625 297.0309375 101.4040625 297.0625 107.9375 C297.071604 109.28577881 297.08070801 110.63405762 297.09008789 112.02319336 C297.09383423 113.6030603 297.09383423 113.6030603 297.09765625 115.21484375 C297.10551147 116.84087524 297.10551147 116.84087524 297.11352539 118.49975586 C297 121 297 121 296 122 C289.07 122 282.14 122 275 122 C275 135.86 275 149.72 275 164 C282.26 164 289.52 164 297 164 C297 172.58 297 181.16 297 190 C235.29 190 173.58 190 110 190 C110 196.6 110 203.2 110 210 C106.64603054 208.65841221 104.31669904 207.70189971 101.44140625 205.80078125 C100.49104492 205.19459961 100.49104492 205.19459961 99.52148438 204.57617188 C98.21287649 203.73203498 96.91074319 202.87777755 95.61523438 202.01367188 C92.58216491 200.10145245 90.67482246 199.01958588 87.0390625 198.9140625 C82.88509219 200.39838608 79.46390827 202.61588819 75.8125 205.0625 C74.40635759 205.99695366 72.99634866 206.92562242 71.58203125 207.84765625 C70.96561768 208.26023682 70.3492041 208.67281738 69.71411133 209.09790039 C68 210 68 210 65 210 C65 203.4 65 196.8 65 190 C62.17695313 190.08701172 62.17695313 190.08701172 59.296875 190.17578125 C56.781275 190.22271409 54.26564792 190.26821042 51.75 190.3125 C49.89761719 190.3753418 49.89761719 190.3753418 48.0078125 190.43945312 C34.63493335 190.61541206 23.4922863 185.86792911 13.65625 176.8515625 C3.05174482 165.92892216 -0.29921797 154.06420762 -0.31469727 139.13012695 C-0.08929311 127.51447756 5.33052615 117.30183824 13.03125 108.7421875 C19.29623799 102.77228953 26.8075699 98.73081003 35 96 C23.45 95.67 11.9 95.34 0 95 C0 86.09 0 77.18 0 68 C5.61 68 11.22 68 17 68 C17 54.14 17 40.28 17 26 C11.39 26 5.78 26 0 26 C0 17.42 0 8.84 0 0 Z " fill="#EF4651" transform="translate(109,207)"/>
<path d="M0 0 C1.64732017 0.43317781 3.29470637 0.86610456 4.94215393 1.29879761 C9.32791616 2.45151433 13.71270276 3.60790002 18.09726715 4.76516342 C21.71895579 5.72064152 25.34117167 6.67411179 28.96339798 7.62754917 C38.77474624 10.21008442 48.58476359 12.79764141 58.39422607 15.3873291 C62.83041209 16.55842254 67.26695141 17.72817177 71.70361328 18.89746094 C77.56352035 20.44209412 83.4228534 21.98887686 89.28146362 23.53842163 C91.32684037 24.07931783 93.37235047 24.61971003 95.41799927 25.15957642 C98.19716504 25.89346292 100.97564495 26.6298855 103.75390625 27.3671875 C104.93419151 27.67823929 104.93419151 27.67823929 106.13832092 27.99557495 C110.22776492 29.08437114 114.24485119 30.28054956 118.24609375 31.66796875 C118.21580078 32.32466553 118.18550781 32.9813623 118.15429688 33.65795898 C117.79389388 41.65959854 117.50532178 49.6624593 117.24609375 57.66796875 C117.20387695 58.85213379 117.16166016 60.03629883 117.11816406 61.25634766 C117.00738743 64.6435562 116.93377173 68.02956658 116.87109375 71.41796875 C116.81405273 72.97729126 116.81405273 72.97729126 116.75585938 74.56811523 C116.65034675 80.87884259 116.65034675 80.87884259 119.70703125 86.18359375 C120.54492188 87.0034375 121.3828125 87.82328125 122.24609375 88.66796875 C124.29238162 94.80683235 124.3518134 102.1681364 121.62109375 108.10546875 C118.47609248 113.45085961 114.13506469 116.70781923 108.24609375 118.66796875 C101.87399945 119.5263856 95.89231396 119.64659619 90.24609375 116.29296875 C84.89806107 112.0972746 81.93920238 106.76473581 80.80859375 100.08203125 C80.51828235 94.18508084 81.89188025 89.52540836 85.24609375 84.66796875 C86.01703117 84.00011604 86.01703117 84.00011604 86.80354309 83.31877136 C88.62289018 81.23677659 88.58719109 80.29129912 88.49487305 77.5637207 C88.46450203 76.33278435 88.46450203 76.33278435 88.43351746 75.07698059 C88.39615982 74.1956395 88.35880219 73.3142984 88.3203125 72.40625 C88.29387161 71.500457 88.26743073 70.594664 88.2401886 69.66142273 C88.15238649 66.76710381 88.04325121 63.8740341 87.93359375 60.98046875 C87.87033902 59.01892504 87.80847283 57.05733602 87.74804688 55.09570312 C87.59683922 50.28578436 87.42649497 45.47687751 87.24609375 40.66796875 C86.34685181 40.93275024 86.34685181 40.93275024 85.42944336 41.20288086 C82.6822601 42.00872481 79.93297119 42.80714454 77.18359375 43.60546875 C76.24064453 43.88326172 75.29769531 44.16105469 74.32617188 44.44726562 C72.93881836 44.84848633 72.93881836 44.84848633 71.5234375 45.2578125 C70.68031006 45.50394287 69.83718262 45.75007324 68.96850586 46.00366211 C65.77428291 46.7830972 62.50099278 47.20298317 59.24609375 47.66796875 C59.24609375 70.43796875 59.24609375 93.20796875 59.24609375 116.66796875 C65.51609375 116.66796875 71.78609375 116.66796875 78.24609375 116.66796875 C78.24609375 116.99796875 78.24609375 117.32796875 78.24609375 117.66796875 C15.87609375 117.66796875 -46.49390625 117.66796875 -110.75390625 117.66796875 C-110.75390625 94.56796875 -110.75390625 71.46796875 -110.75390625 47.66796875 C-119.16890625 45.68796875 -119.16890625 45.68796875 -127.75390625 43.66796875 C-131.63469082 42.68424643 -135.50912265 41.69210808 -139.37890625 40.66796875 C-140.83067261 40.28560059 -140.83067261 40.28560059 -142.31176758 39.89550781 C-144.23395268 39.38888786 -146.15591837 38.88143446 -148.07763672 38.37304688 C-150.52120119 37.7292762 -152.96693627 37.09491335 -155.4140625 36.46484375 C-156.75653264 36.11597093 -158.0989823 35.76701927 -159.44140625 35.41796875 C-160.57964844 35.1240625 -161.71789062 34.83015625 -162.890625 34.52734375 C-165.38924428 33.77741709 -167.45255424 32.86384492 -169.75390625 31.66796875 C-158.14735524 28.2387605 -146.50705512 25.05810048 -134.75390625 22.16796875 C-126.53945654 20.14750584 -118.37095951 18.05064981 -110.25390625 15.66796875 C-98.51496606 12.22433015 -86.63794506 9.35331701 -74.76416016 6.41699219 C-66.62760173 4.39242112 -58.54800322 2.17452327 -50.4765625 -0.09375 C-49.35016357 -0.41021484 -48.22376465 -0.72667969 -47.06323242 -1.05273438 C-44.81406185 -1.6858982 -42.56550108 -2.32123317 -40.31762695 -2.95898438 C-39.283396 -3.25095703 -38.24916504 -3.54292969 -37.18359375 -3.84375 C-36.25788574 -4.10631592 -35.33217773 -4.36888184 -34.37841797 -4.6394043 C-22.69216856 -7.72348705 -11.40550837 -3.01503808 0 0 Z " fill="#185F8D" transform="translate(282.75390625,89.33203125)"/>
<path d="M0 0 C29.65700394 -0.06785655 59.31399806 -0.12154905 88.97106328 -0.15319599 C92.47444271 -0.15694799 95.97782198 -0.16083097 99.48120117 -0.16479492 C100.17864423 -0.16558185 100.8760873 -0.16636878 101.594665 -0.16717956 C112.87916451 -0.18022412 124.16361805 -0.20387271 135.44809031 -0.23145839 C147.031889 -0.25953907 158.61566091 -0.27595741 170.19949204 -0.28226548 C176.70390173 -0.28617578 183.20820724 -0.29536367 189.71258354 -0.31719017 C195.83645882 -0.33757308 201.96018712 -0.34383007 208.08409309 -0.33932304 C210.3298383 -0.34014743 212.57558848 -0.34610219 214.82130432 -0.35761642 C217.89243712 -0.37258853 220.9630183 -0.36893616 224.03416443 -0.36076355 C225.36056392 -0.37387134 225.36056392 -0.37387134 226.71375936 -0.38724393 C233.78473003 -0.33654259 240.24362797 0.73364967 245.8125 5.3125 C250.8266018 11.47268221 253.64195992 15.91130504 253 24 C251.14998985 31.04341215 248.28239037 36.13391362 242 40 C238.26667566 41.7520638 235.37376988 42.23929166 231.26171875 42.1953125 C229.81865356 42.18781982 229.81865356 42.18781982 228.34643555 42.18017578 C227.13898682 42.16196777 225.93153809 42.14375977 224.6875 42.125 C220.830625 42.08375 216.97375 42.0425 213 42 C213 57.51 213 73.02 213 89 C209.35768032 87.54307213 207.18903241 86.58828089 204.1796875 84.40625 C196.63106375 78.75746631 196.63106375 78.75746631 187.79296875 77.46875 C184.91909866 79.08041963 182.53142365 80.89442332 180 83 C178.16403732 84.15446961 176.3102561 85.28122507 174.4375 86.375 C173.63183594 86.87773437 172.82617188 87.38046875 171.99609375 87.8984375 C170 89 170 89 168 89 C168 73.49 168 57.98 168 42 C162.6372583 42.16298584 157.2745166 42.32597168 151.74926758 42.49389648 C133.6170823 43.00467883 115.50121945 43.13535221 97.36291862 43.10139394 C93.31387256 43.09495719 89.26482492 43.09454113 85.21577454 43.09336853 C77.61673294 43.09031304 70.01770648 43.08218144 62.41867143 43.07201904 C53.73841598 43.06067342 45.05815964 43.05530196 36.37789857 43.05032361 C18.58525727 43.03999085 0.79262987 43.02250904 -17 43 C-17 42.67 -17 42.34 -17 42 C-11.39 42 -5.78 42 0 42 C0 28.14 0 14.28 0 0 Z " fill="#EBD8BC" transform="translate(126,233)"/>
<path d="M0 0 C32.77376128 -0.11315294 65.54744704 -0.20261326 98.32135872 -0.25532665 C102.19511513 -0.2615798 106.06887114 -0.26805145 109.94262695 -0.2746582 C110.71378614 -0.27596976 111.48494533 -0.27728131 112.27947298 -0.2786326 C124.74791493 -0.3003588 137.216241 -0.33976485 149.68461432 -0.38576398 C162.48884038 -0.43260639 175.29300596 -0.4603118 188.09731418 -0.47044247 C195.99128731 -0.47728556 203.88493287 -0.49885813 211.77880511 -0.53958233 C217.84314478 -0.56926462 223.90720572 -0.5722546 229.97162628 -0.56553841 C232.45113701 -0.56690943 234.93066061 -0.57679467 237.41009712 -0.59602737 C256.04116025 -0.73340896 269.15029386 0.65314117 283.1171875 14.02734375 C294.0237888 25.40725039 296.4981802 36.88924462 296.27734375 51.99609375 C296.05567959 57.93250261 294.78248483 62.74515249 292 68 C291.55269531 68.86882812 291.10539062 69.73765625 290.64453125 70.6328125 C283.85231512 82.83330796 273.35322218 90.5934485 259.89672852 94.43310547 C254.25989803 95.53624246 248.59409272 95.30596343 242.875 95.1875 C238.62625 95.125625 234.3775 95.06375 230 95 C230 86.09 230 77.18 230 68 C241.5 67.75 241.5 67.75 245.07617188 67.70214844 C252.83021049 67.45345375 258.56073409 66.34631277 264.3125 60.75 C267.78427182 55.09229777 269.8413167 49.73053362 269 43 C268.11336957 40.84333138 267.10859065 38.83259973 265.97265625 36.796875 C265 35 265 35 264 32 C262.17827683 30.84342828 262.17827683 30.84342828 260 30 C259.344513 29.72361024 258.68902599 29.44722047 258.01367575 29.16245526 C252.04596533 26.99599857 246.70349226 26.5690644 240.38877869 26.60127258 C239.35611722 26.59462576 238.32345575 26.58797893 237.25950152 26.58113068 C233.81865117 26.56256163 230.37815042 26.56510193 226.93725586 26.56762695 C224.46304841 26.5586061 221.98884544 26.54827809 219.51464844 26.53674316 C214.1978289 26.51488685 208.88110685 26.50208138 203.56425285 26.49761391 C195.87712017 26.491139 188.19010522 26.46817815 180.50302012 26.44127061 C168.02945514 26.39805293 155.55589513 26.36805756 143.08227539 26.34643555 C130.96962033 26.32541079 118.85700593 26.29812266 106.74438477 26.26245117 C105.6233277 26.25915293 105.6233277 26.25915293 104.47962301 26.25578807 C100.73005653 26.24471804 96.98049042 26.2335253 93.23092449 26.22227156 C62.15398223 26.12915755 31.07702789 26.0583459 0 26 C0 17.42 0 8.84 0 0 Z " fill="#FCA632" transform="translate(109,207)"/>
<path d="M0 0 C0.96134365 -0.00085442 1.92268731 -0.00170885 2.91316259 -0.00258917 C6.15455984 -0.00424446 9.39590605 0.00127824 12.63729858 0.00672913 C14.95283507 0.00701101 17.26837165 0.00685323 19.58390808 0.00628662 C25.8873154 0.0059987 32.19070385 0.01189449 38.49410677 0.01886058 C45.07515143 0.02509509 51.65619649 0.02569799 58.23724365 0.02688599 C69.28873015 0.02947831 80.34021001 0.03589893 91.39169312 0.04481506 C102.77613286 0.05399029 114.16057073 0.06107058 125.54501343 0.06532288 C126.5971412 0.06571696 126.5971412 0.06571696 127.67052408 0.06611901 C131.18923954 0.06742402 134.70795502 0.06868773 138.2266705 0.06993091 C167.43044571 0.08030219 196.63421353 0.09819404 225.83798218 0.12025452 C225.83798218 13.98025452 225.83798218 27.84025452 225.83798218 42.12025452 C171.38798218 42.12025452 116.93798218 42.12025452 60.83798218 42.12025452 C60.83798218 35.19025452 60.83798218 28.26025452 60.83798218 21.12025452 C45.98798218 21.12025452 31.13798218 21.12025452 15.83798218 21.12025452 C15.83798218 28.05025452 15.83798218 34.98025452 15.83798218 42.12025452 C-8.55579933 43.21980727 -8.55579933 43.21980727 -15.48623657 37.83509827 C-17.84551573 35.42082426 -19.6244894 33.13124767 -21.16201782 30.12025452 C-21.57451782 29.35712952 -21.98701782 28.59400452 -22.41201782 27.80775452 C-24.17615343 21.4862686 -23.78506923 15.80605542 -20.57608032 10.04603577 C-14.76857635 2.13692123 -9.49500947 -0.03044141 0 0 Z " fill="#EAD7BD" transform="translate(158.16201782226563,328.87974548339844)"/>
<path d="M0 0 C0 25.08 0 50.16 0 76 C-5.21424239 75.3482197 -9.497628 74.73895025 -14.4375 73.375 C-15.06180908 73.20460205 -15.68611816 73.0342041 -16.3293457 72.85864258 C-20.40884897 71.73911053 -24.47753925 70.58162219 -28.546875 69.42578125 C-43.27166605 65.2526042 -58.05332551 61.4017668 -72.91821289 57.75854492 C-76.61454477 56.84873718 -80.30700255 55.92324936 -84 55 C-84 77.44 -84 99.88 -84 123 C-21.96 123 40.08 123 104 123 C104 123.33 104 123.66 104 124 C41.63 124 -20.74 124 -85 124 C-85 100.9 -85 77.8 -85 54 C-93.415 52.02 -93.415 52.02 -102 50 C-105.88078457 49.01627768 -109.7552164 48.02413933 -113.625 47 C-115.07676636 46.61763184 -115.07676636 46.61763184 -116.55786133 46.22753906 C-118.48004643 45.72091911 -120.40201212 45.21346571 -122.32373047 44.70507812 C-124.76729494 44.06130745 -127.21303002 43.4269446 -129.66015625 42.796875 C-131.00262639 42.44800218 -132.34507605 42.09905052 -133.6875 41.75 C-134.82574219 41.45609375 -135.96398437 41.1621875 -137.13671875 40.859375 C-139.63533803 40.10944834 -141.69864799 39.19587617 -144 38 C-132.39344899 34.57079175 -120.75314887 31.39013173 -109 28.5 C-100.78555029 26.47953709 -92.61705326 24.38268106 -84.5 22 C-72.76105981 18.5563614 -60.88403881 15.68534826 -49.01025391 12.74902344 C-40.87369548 10.72445237 -32.79409697 8.50655452 -24.72265625 6.23828125 C-23.59625732 5.92181641 -22.4698584 5.60535156 -21.30932617 5.27929688 C-19.0601556 4.64613305 -16.81159483 4.01079808 -14.5637207 3.37304688 C-13.52948975 3.08107422 -12.49525879 2.78910156 -11.4296875 2.48828125 C-10.50397949 2.22571533 -9.57827148 1.96314941 -8.62451172 1.69262695 C-2.21078604 0 -2.21078604 0 0 0 Z " fill="#3677A3" transform="translate(257,83)"/>
<path d="M0 0 C43.23 0 86.46 0 131 0 C131 14.19 131 28.38 131 43 C82.16 43 33.32 43 -17 43 C-17 42.67 -17 42.34 -17 42 C-11.39 42 -5.78 42 0 42 C0 28.14 0 14.28 0 0 Z " fill="#FEF2D9" transform="translate(126,233)"/>
<path d="M0 0 C0 22.77 0 45.54 0 69 C-28.05 69 -56.1 69 -85 69 C-85 53.82 -85 38.64 -85 23 C-79.46734886 21.15578295 -74.11594461 19.42310521 -68.50830078 17.93115234 C-67.81930191 17.74700272 -67.13030304 17.56285309 -66.42042542 17.37312317 C-64.17940064 16.77481126 -61.93736748 16.18037597 -59.6953125 15.5859375 C-58.12345298 15.16690614 -56.55166666 14.74760013 -54.97994995 14.32803345 C-50.86859549 13.23116651 -46.75640597 12.13746578 -42.64398193 11.0446167 C-36.04149496 9.28948877 -29.44028009 7.52958352 -22.83910751 5.76951981 C-20.53770983 5.15640247 -18.23594168 4.5446923 -15.93411255 3.93319702 C-14.52784436 3.55884765 -13.12158377 3.18446974 -11.71533203 2.81005859 C-10.48783234 2.48379486 -9.26033264 2.15753113 -7.99563599 1.82138062 C-1.35292588 0 -1.35292588 0 0 0 Z " fill="#063051" transform="translate(342,137)"/>
<path d="M0 0 C61.71 0 123.42 0 187 0 C187 8.58 187 17.16 187 26 C125.29 26 63.58 26 0 26 C0 17.42 0 8.84 0 0 Z " fill="#DA2835" transform="translate(219,371)"/>
<path d="M0 0 C6.73977406 0 6.73977406 0 10.1953125 1.06640625 C11.3716626 1.41856201 11.3716626 1.41856201 12.57177734 1.77783203 C13.83562256 2.16624268 13.83562256 2.16624268 15.125 2.5625 C23.8230159 5.14552823 32.5658923 7.45169847 41.375 9.625 C50.94592943 11.99004203 60.48410374 14.42092531 70 17 C74.95 18.32 79.9 19.64 85 21 C84.67 36.51 84.34 52.02 84 68 C56.28 68 28.56 68 0 68 C0 45.56 0 23.12 0 0 Z " fill="#225779" transform="translate(173,138)"/>
<path d="M0 0 C0 8.91 0 17.82 0 27 C-61.05 27 -122.1 27 -185 27 C-185 18.42 -185 9.84 -185 1 C-166.34222227 0.8682395 -147.68443777 0.73758997 -129.02663898 0.60884857 C-120.35898154 0.54900689 -111.69132776 0.48870914 -103.02368164 0.42724609 C-95.44851158 0.37353115 -87.87333554 0.32076507 -80.29815167 0.26903296 C-76.30576574 0.24173797 -72.31338375 0.21404005 -68.32100868 0.18519592 C-45.54698277 0.02106749 -22.77460037 -0.02564919 0 0 Z " fill="#FFC43A" transform="translate(294,275)"/>
<path d="M0 0 C1.36721695 -0.002062 1.36721695 -0.002062 2.76205444 -0.00416565 C4.26608826 0.00122726 4.26608826 0.00122726 5.80050659 0.00672913 C6.85418427 0.0065831 7.90786194 0.00643707 8.99346924 0.00628662 C12.48890211 0.00698531 15.98428221 0.01477571 19.47970581 0.02259827 C21.89823375 0.0244626 24.31676207 0.02588643 26.73529053 0.02688599 C33.11067746 0.03070996 39.48604172 0.04053923 45.86141968 0.05158997 C52.36308485 0.06180667 58.86475368 0.06638416 65.36642456 0.07142639 C78.13075905 0.08216159 90.89507075 0.09975743 103.65939331 0.12025452 C103.65939331 13.98025452 103.65939331 27.84025452 103.65939331 42.12025452 C91.11939331 42.12025452 78.57939331 42.12025452 65.65939331 42.12025452 C65.65939331 35.19025452 65.65939331 28.26025452 65.65939331 21.12025452 C50.80939331 21.12025452 35.95939331 21.12025452 20.65939331 21.12025452 C20.65939331 28.05025452 20.65939331 34.98025452 20.65939331 42.12025452 C-3.7343882 43.21980727 -3.7343882 43.21980727 -10.66482544 37.83509827 C-13.0241046 35.42082426 -14.80307827 33.13124767 -16.34060669 30.12025452 C-16.75310669 29.35712952 -17.16560669 28.59400452 -17.59060669 27.80775452 C-19.35474229 21.4862686 -18.9636581 15.80605542 -15.75466919 10.04603577 C-11.77912607 4.63182925 -6.87224496 -0.00797244 0 0 Z " fill="#FEF1DA" transform="translate(153.34060668945313,328.87974548339844)"/>
<path d="M0 0 C48.84 0 97.68 0 148 0 C148 8.58 148 17.16 148 26 C99.16 26 50.32 26 0 26 C0 17.42 0 8.84 0 0 Z " fill="#FFC43A" transform="translate(109,207)"/>
<path d="M0 0 C12.21 0 24.42 0 37 0 C37 6.6 37 13.2 37 20 C39.20816406 18.50533203 39.20816406 18.50533203 41.4609375 16.98046875 C43.430939 15.71403921 45.40236994 14.4498313 47.375 13.1875 C48.34050781 12.52556641 49.30601562 11.86363281 50.30078125 11.18164062 C57.48084242 6.67603177 57.48084242 6.67603177 61.70751953 7.57739258 C64.32292016 8.86425305 66.62124985 10.31899949 69 12 C70.26902662 12.75357176 71.54205219 13.50048078 72.8203125 14.23828125 C75.88020833 16.15885417 78.94010417 18.07942708 82 20 C82 13.4 82 6.8 82 0 C104.11 0 126.22 0 149 0 C149 8.58 149 17.16 149 26 C99.83 26 50.66 26 0 26 C0 17.42 0 8.84 0 0 Z " fill="#D92835" transform="translate(257,302)"/>
<path d="M0 0 C14.85 0 29.7 0 45 0 C45 22.11 45 44.22 45 67 C41.64603054 65.65841221 39.31669904 64.70189971 36.44140625 62.80078125 C35.49104492 62.19459961 35.49104492 62.19459961 34.52148438 61.57617188 C33.21287649 60.73203498 31.91074319 59.87777755 30.61523438 59.01367188 C27.58216491 57.10145245 25.67482246 56.01958588 22.0390625 55.9140625 C17.88509219 57.39838608 14.46390827 59.61588819 10.8125 62.0625 C9.40635759 62.99695366 7.99634866 63.92562242 6.58203125 64.84765625 C5.96561768 65.26023682 5.3492041 65.67281738 4.71411133 66.09790039 C3 67 3 67 0 67 C0 44.89 0 22.78 0 0 Z " fill="#FDC33C" transform="translate(174,350)"/>
<path d="M0 0 C14.85 0 29.7 0 45 0 C45 22.11 45 44.22 45 67 C41.35768032 65.54307213 39.18903241 64.58828089 36.1796875 62.40625 C28.63106375 56.75746631 28.63106375 56.75746631 19.79296875 55.46875 C16.91909866 57.08041963 14.53142365 58.89442332 12 61 C10.16403732 62.15446961 8.3102561 63.28122507 6.4375 64.375 C5.63183594 64.87773437 4.82617188 65.38046875 3.99609375 65.8984375 C2 67 2 67 0 67 C0 44.89 0 22.78 0 0 Z " fill="#3576A5" transform="translate(294,255)"/>
<path d="M0 0 C5.5214322 2.43244382 9.35972687 6.50338392 12.81640625 11.3828125 C14.86269412 17.5216761 14.9221259 24.88298015 12.19140625 30.8203125 C9.04640498 36.16570336 4.70537719 39.42266298 -1.18359375 41.3828125 C-7.55568805 42.24122935 -13.53737354 42.36143994 -19.18359375 39.0078125 C-24.53162643 34.81211835 -27.49048512 29.47957956 -28.62109375 22.796875 C-28.90898468 16.94909046 -27.79295112 12.0549251 -24.18359375 7.3828125 C-17.02702737 0.78351973 -9.78531406 -2.76579539 0 0 Z " fill="#063152" transform="translate(392.18359375,166.6171875)"/>
<path d="M0 0 C10.49778286 1.6131914 20.72817505 4.34993485 31 7 C31.71865234 7.18353027 32.43730469 7.36706055 33.17773438 7.55615234 C41.62129106 9.71589527 49.6956598 12.2318866 58 15 C58 29.19 58 43.38 58 58 C53.64161639 54.26424262 49.55468005 50.68047306 45.52368164 46.65307617 C45.02522736 46.15637421 44.52677307 45.65967224 44.01321411 45.1479187 C42.39303142 43.53208021 40.77646607 41.9126805 39.16015625 40.29296875 C38.02687419 39.16036122 36.89344379 38.0279021 35.75987244 36.89558411 C33.39907917 34.53625716 31.04008452 32.17515066 28.68237305 29.81274414 C25.65371712 26.77835213 22.62054068 23.74852453 19.58603764 20.71998119 C17.25177246 18.38931707 14.91987869 16.05629207 12.58871269 13.72252846 C11.47023436 12.60338162 10.35100879 11.48498107 9.23103523 10.36733055 C7.67511751 8.81393608 6.12241339 7.25740112 4.57055664 5.69995117 C3.68566055 4.81425949 2.80076447 3.92856781 1.88905334 3.01603699 C0 1 0 1 0 0 Z " fill="#09A1E7" transform="translate(114,122)"/>
<path d="M0 0 C-0.66 16.17 -1.32 32.34 -2 49 C-6.455 47.02 -6.455 47.02 -11 45 C-17.97901625 43.66879915 -23.01675291 45.45437209 -29 49 C-30.06671373 40.31184574 -30.31660714 31.6147349 -30.5625 22.875 C-30.60580156 21.42707378 -30.64941906 19.97915698 -30.69335938 18.53125 C-30.79921106 15.02093422 -30.90080239 11.51051087 -31 8 C-24.76897331 5.84137422 -18.50466276 3.97785361 -12.125 2.3125 C-11.28453125 2.08755859 -10.4440625 1.86261719 -9.578125 1.63085938 C-8.36769531 1.3127832 -8.36769531 1.3127832 -7.1328125 0.98828125 C-6.04830811 0.70271362 -6.04830811 0.70271362 -4.94189453 0.41137695 C-3 0 -3 0 0 0 Z " fill="#215779" transform="translate(401,122)"/>
<path d="M0 0 C12.21 0 24.42 0 37 0 C37 8.91 37 17.82 37 27 C24.79 27 12.58 27 0 27 C0 18.09 0 9.18 0 0 Z " fill="#FCA633" transform="translate(257,275)"/>
<path d="M0 0 C12.54 0 25.08 0 38 0 C38 8.58 38 17.16 38 26 C25.46 26 12.92 26 0 26 C0 17.42 0 8.84 0 0 Z " fill="#F1454E" transform="translate(219,371)"/>
<path d="M0 0 C12.87 0 25.74 0 39 0 C35.76284016 1.61857992 32.61375469 2.94284144 29.25 4.25 C23.82380049 6.47766769 19.44494655 9.19564869 15 13 C11.12207603 11.38419835 8.28921212 8.75734641 5.25 5.9375 C4.74339844 5.47794922 4.23679687 5.01839844 3.71484375 4.54492188 C2.45382769 3.38757425 1.22393107 2.19649813 0 1 C0 0.67 0 0.34 0 0 Z " fill="#0BA0E6" transform="translate(109,302)"/>
<path d="M0 0 C5.61 0 11.22 0 17 0 C17 5.28 17 10.56 17 16 C10.73074502 11.55452828 5.17897463 6.69447442 0 1 C0 0.67 0 0.34 0 0 Z " fill="#0EA2E6" transform="translate(109,233)"/>
</svg>
